# This file uses centimeters as units for non-parametric coordinates.

mtllib cup.mtl
g default
v 1.996726 -0.037991 -0.648774
v 1.698519 -0.037991 -1.234045
v 1.234045 -0.037991 -1.698519
v 0.648774 -0.037991 -1.996726
v -0.000000 -0.037991 -2.099483
v -0.648774 -0.037991 -1.996726
v -1.234045 -0.037991 -1.698518
v -1.698518 -0.037991 -1.234044
v -1.996726 -0.037991 -0.648774
v -2.099477 -0.037991 -0.000000
v -1.996726 -0.037991 0.648774
v -1.698518 -0.037991 1.234044
v -1.234044 -0.037991 1.698518
v -0.648774 -0.037991 1.996725
v -0.000000 -0.037991 2.099476
v 0.648774 -0.037991 1.996725
v 1.234044 -0.037991 1.698518
v 1.698518 -0.037991 1.234044
v 1.996725 -0.037991 0.648774
v 2.099483 -0.037991 -0.000000
v 2.901083 5.516335 -0.942618
v 2.467810 5.516335 -1.792967
v 1.792967 5.516335 -2.467810
v 0.942618 5.516335 -2.901082
v 0.000000 5.516335 -3.050379
v -0.942618 5.516335 -2.901082
v -1.792967 5.516335 -2.467809
v -2.467809 5.516335 -1.792967
v -2.901082 5.516335 -0.942618
v -3.050378 5.516335 0.000000
v -2.901082 5.516335 0.942618
v -2.467809 5.516335 1.792966
v -1.792966 5.516335 2.467809
v -0.942618 5.516335 2.901081
v -0.000000 5.516335 3.050378
v 0.942617 5.516335 2.901081
v 1.792966 5.516335 2.467809
v 2.467808 5.516335 1.792966
v 2.901081 5.516335 0.942618
v 3.050377 5.516335 0.000000
v -0.000000 -0.037991 -0.000000
v 3.079145 5.560216 -1.000476
v 2.619280 5.560216 -1.903017
v 1.903017 5.560216 -2.619280
v 1.000475 5.560216 -3.079145
v 0.000000 5.560216 -3.237604
v -1.000475 5.560216 -3.079145
v -1.903017 5.560216 -2.619279
v -2.619279 5.560216 -1.903016
v -3.079144 5.560216 -1.000475
v -3.237603 5.560216 0.000000
v -3.079144 5.560216 1.000475
v -2.619279 5.560216 1.903016
v -1.903016 5.560216 2.619279
v -1.000475 5.560216 3.079144
v -0.000000 5.560216 3.237603
v 1.000475 5.560216 3.079144
v 1.903016 5.560216 2.619278
v 2.619278 5.560216 1.903016
v 3.079144 5.560216 1.000475
v 3.237602 5.560216 0.000000
v 0.000000 5.679445 0.000000
v 3.079145 5.631758 -1.000476
v 3.033227 5.679445 -0.985556
v 2.580219 5.679445 -1.874638
v 2.619280 5.631758 -1.903017
v 1.874638 5.679445 -2.580219
v 1.903017 5.631758 -2.619280
v 0.985556 5.679445 -3.033227
v 1.000475 5.631758 -3.079145
v 0.000000 5.679445 -3.189323
v 0.000000 5.631758 -3.237604
v -0.985556 5.679445 -3.033227
v -1.000475 5.631758 -3.079145
v -1.874638 5.679445 -2.580219
v -1.903017 5.631758 -2.619279
v -2.580219 5.679445 -1.874637
v -2.619279 5.631758 -1.903016
v -3.033226 5.679445 -0.985556
v -3.079144 5.631758 -1.000475
v -3.189322 5.679445 0.000000
v -3.237603 5.631758 0.000000
v -3.033226 5.679445 0.985556
v -3.079144 5.631758 1.000475
v -2.580219 5.679445 1.874637
v -2.619279 5.631758 1.903016
v -1.874637 5.679445 2.580219
v -1.903016 5.631758 2.619279
v -0.985556 5.679445 3.033226
v -1.000475 5.631758 3.079144
v -0.000000 5.679445 3.189322
v -0.000000 5.631758 3.237603
v 0.985555 5.679445 3.033226
v 1.000475 5.631758 3.079144
v 1.874637 5.679445 2.580218
v 1.903016 5.631758 2.619278
v 2.580218 5.679445 1.874637
v 2.619278 5.631758 1.903016
v 3.033226 5.679445 0.985555
v 3.079144 5.631758 1.000475
v 3.189321 5.679445 0.000000
v 3.237602 5.631758 0.000000
vt 0.189079 0.106367
vt 0.177131 0.082918
vt 0.158522 0.064309
vt 0.135073 0.052361
vt 0.109079 0.048244
vt 0.083086 0.052361
vt 0.059637 0.064309
vt 0.041028 0.082918
vt 0.029080 0.106367
vt 0.024963 0.132360
vt 0.029080 0.158354
vt 0.041028 0.181803
vt 0.059637 0.200412
vt 0.083086 0.212360
vt 0.109079 0.216477
vt 0.135073 0.212360
vt 0.158522 0.200412
vt 0.177131 0.181803
vt 0.189079 0.158354
vt 0.193196 0.132360
vt 0.030751 0.252448
vt 0.074306 0.252448
vt 0.117862 0.252448
vt 0.161417 0.252448
vt 0.204972 0.252448
vt 0.248528 0.252448
vt 0.292083 0.252448
vt 0.335639 0.252448
vt 0.379194 0.252448
vt 0.422749 0.252448
vt 0.466305 0.252448
vt 0.509860 0.252448
vt 0.553416 0.252448
vt 0.596971 0.252448
vt 0.640526 0.252448
vt 0.684082 0.252448
vt 0.727637 0.252448
vt 0.771192 0.252448
vt 0.814748 0.252448
vt 0.858303 0.252448
vt 0.901859 0.252448
vt 0.030751 0.606645
vt 0.074306 0.606645
vt 0.117862 0.606645
vt 0.161417 0.606645
vt 0.204972 0.606645
vt 0.248528 0.606645
vt 0.292083 0.606645
vt 0.335639 0.606645
vt 0.379194 0.606645
vt 0.422749 0.606645
vt 0.466305 0.606645
vt 0.509860 0.606645
vt 0.553416 0.606645
vt 0.596971 0.606645
vt 0.640526 0.606645
vt 0.684082 0.606645
vt 0.727637 0.606645
vt 0.771192 0.606645
vt 0.814748 0.606645
vt 0.858303 0.606645
vt 0.901859 0.606645
vt 0.365886 0.748096
vt 0.340717 0.698699
vt 0.301516 0.659498
vt 0.252119 0.634329
vt 0.197362 0.625656
vt 0.142605 0.634329
vt 0.093208 0.659498
vt 0.054007 0.698699
vt 0.028838 0.748096
vt 0.020165 0.802853
vt 0.028838 0.857610
vt 0.054007 0.907007
vt 0.093208 0.946208
vt 0.142605 0.971377
vt 0.197362 0.980050
vt 0.252119 0.971377
vt 0.301515 0.946208
vt 0.340717 0.907007
vt 0.365886 0.857610
vt 0.374559 0.802853
vt 0.109079 0.132360
vt 0.338579 0.905453
vt 0.299962 0.944070
vt 0.251302 0.968864
vt 0.197362 0.977407
vt 0.143422 0.968864
vt 0.094761 0.944070
vt 0.056144 0.905453
vt 0.031351 0.856793
vt 0.022808 0.802853
vt 0.031351 0.748913
vt 0.056144 0.700252
vt 0.094761 0.661636
vt 0.143422 0.636842
vt 0.197362 0.628299
vt 0.251302 0.636842
vt 0.299962 0.661636
vt 0.338579 0.700252
vt 0.363373 0.748913
vt 0.371916 0.802853
vt 0.363373 0.856793
vt 0.197362 0.802853
vt 0.340717 0.907007
vt 0.365886 0.857610
vt 0.301515 0.946208
vt 0.340717 0.907007
vt 0.252119 0.971377
vt 0.301515 0.946208
vt 0.197362 0.980050
vt 0.252119 0.971377
vt 0.142605 0.971377
vt 0.197362 0.980050
vt 0.093208 0.946208
vt 0.142605 0.971377
vt 0.054007 0.907007
vt 0.093208 0.946208
vt 0.028838 0.857610
vt 0.054007 0.907007
vt 0.020165 0.802853
vt 0.028838 0.857610
vt 0.028838 0.748096
vt 0.020165 0.802853
vt 0.054007 0.698699
vt 0.028838 0.748096
vt 0.093208 0.659498
vt 0.054007 0.698699
vt 0.142605 0.634329
vt 0.093208 0.659498
vt 0.197362 0.625656
vt 0.142605 0.634329
vt 0.252119 0.634329
vt 0.197362 0.625656
vt 0.301516 0.659498
vt 0.252119 0.634329
vt 0.340717 0.698699
vt 0.301516 0.659498
vt 0.365886 0.748096
vt 0.340717 0.698699
vt 0.374559 0.802853
vt 0.365886 0.748096
vt 0.365886 0.857610
vt 0.374559 0.802853
vn 0.937419 -0.168744 -0.304584
vn 0.797416 -0.168744 -0.579356
vn 0.790972 -0.210031 -0.574674
vn 0.929843 -0.210031 -0.302123
vn 0.579355 -0.168744 -0.797416
vn 0.574674 -0.210031 -0.790972
vn 0.304585 -0.168744 -0.937419
vn 0.302124 -0.210031 -0.929843
vn 0.000000 -0.168744 -0.985660
vn 0.000000 -0.210031 -0.977695
vn -0.304585 -0.168744 -0.937418
vn -0.302124 -0.210031 -0.929843
vn -0.579356 -0.168744 -0.797416
vn -0.574674 -0.210031 -0.790972
vn -0.797416 -0.168744 -0.579355
vn -0.790972 -0.210031 -0.574674
vn -0.937419 -0.168744 -0.304583
vn -0.929844 -0.210031 -0.302122
vn -0.985660 -0.168745 -0.000000
vn -0.977695 -0.210031 0.000000
vn -0.937419 -0.168744 0.304584
vn -0.929844 -0.210031 0.302122
vn -0.797416 -0.168744 0.579356
vn -0.790972 -0.210031 0.574674
vn -0.579355 -0.168744 0.797416
vn -0.574674 -0.210031 0.790972
vn -0.304583 -0.168744 0.937419
vn -0.302122 -0.210031 0.929844
vn 0.000000 -0.168745 0.985660
vn 0.000000 -0.210031 0.977695
vn 0.304583 -0.168744 0.937419
vn 0.302122 -0.210031 0.929844
vn 0.579356 -0.168744 0.797416
vn 0.574674 -0.210031 0.790972
vn 0.797416 -0.168744 0.579356
vn 0.790972 -0.210031 0.574674
vn 0.937418 -0.168744 0.304585
vn 0.929843 -0.210031 0.302124
vn 0.985660 -0.168744 0.000001
vn 0.977695 -0.210031 0.000001
vn 0.000000 -1.000000 0.000000
vn 0.000000 -1.000000 0.000000
vn 0.000000 -1.000000 0.000000
vn 0.000000 -1.000000 0.000000
vn 0.000000 -1.000000 0.000000
vn 0.000000 -1.000000 0.000000
vn 0.000000 -1.000000 0.000000
vn 0.000000 -1.000000 0.000000
vn 0.000000 -1.000000 0.000000
vn 0.000000 -1.000000 0.000000
vn 0.000000 -1.000000 0.000000
vn 0.000000 -1.000000 0.000000
vn 0.000000 -1.000000 0.000000
vn 0.000000 -1.000000 0.000000
vn 0.000000 -1.000000 0.000000
vn 0.000000 -1.000000 0.000000
vn 0.000000 -1.000000 -0.000000
vn 0.000000 -1.000000 -0.000000
vn 0.000000 -1.000000 0.000000
vn 0.000000 -1.000000 0.000000
vn 0.000000 -1.000000 0.000000
vn 0.184610 -0.973616 -0.134127
vn 0.217023 -0.973616 -0.070515
vn 0.134127 -0.973616 -0.184610
vn 0.070515 -0.973616 -0.217022
vn 0.000000 -0.973616 -0.228191
vn -0.070515 -0.973617 -0.217022
vn -0.134127 -0.973617 -0.184610
vn -0.184610 -0.973617 -0.134127
vn -0.217023 -0.973616 -0.070515
vn -0.228192 -0.973616 0.000000
vn -0.217023 -0.973616 0.070515
vn -0.184609 -0.973617 0.134127
vn -0.134127 -0.973617 0.184610
vn -0.070515 -0.973616 0.217023
vn -0.000000 -0.973616 0.228192
vn 0.070515 -0.973616 0.217023
vn 0.134127 -0.973617 0.184610
vn 0.184610 -0.973617 0.134127
vn 0.217023 -0.973616 0.070515
vn 0.228192 -0.973616 0.000000
vn 0.668322 0.711472 -0.217150
vn 0.668322 0.711472 -0.217150
vn 0.702716 0.711471 0.000001
vn 0.702716 0.711471 0.000001
vn 0.568509 0.711471 -0.413046
vn 0.568509 0.711471 -0.413047
vn 0.413045 0.711471 -0.568510
vn 0.413045 0.711471 -0.568509
vn 0.217150 0.711471 -0.668323
vn 0.217150 0.711471 -0.668323
vn 0.000000 0.711470 -0.702716
vn 0.000000 0.711470 -0.702716
vn -0.217150 0.711471 -0.668323
vn -0.217150 0.711471 -0.668323
vn -0.413046 0.711472 -0.568508
vn -0.413045 0.711472 -0.568508
vn -0.568508 0.711472 -0.413044
vn -0.568508 0.711472 -0.413044
vn -0.668322 0.711472 -0.217150
vn -0.668322 0.711472 -0.217150
vn -0.702716 0.711471 -0.000000
vn -0.702716 0.711471 -0.000000
vn -0.668323 0.711470 0.217151
vn -0.668323 0.711470 0.217151
vn -0.568510 0.711471 0.413044
vn -0.568510 0.711471 0.413044
vn -0.413046 0.711471 0.568508
vn -0.413046 0.711471 0.568508
vn -0.217150 0.711469 0.668325
vn -0.217150 0.711469 0.668325
vn -0.000000 0.711468 0.702719
vn -0.000000 0.711468 0.702719
vn 0.217151 0.711469 0.668325
vn 0.217150 0.711469 0.668325
vn 0.413046 0.711471 0.568509
vn 0.413046 0.711471 0.568509
vn 0.568509 0.711471 0.413045
vn 0.568509 0.711471 0.413045
vn 0.668323 0.711470 0.217151
vn 0.668323 0.711470 0.217151
vn 0.000000 1.000000 0.000000
vn 0.000000 1.000000 0.000000
vn 0.000000 1.000000 0.000000
vn 0.000000 1.000000 0.000000
vn 0.000000 1.000000 0.000000
vn 0.000000 1.000000 0.000000
vn 0.000000 1.000000 -0.000000
vn 0.000000 1.000000 -0.000000
vn 0.000000 1.000000 0.000000
vn 0.000000 1.000000 0.000000
vn 0.000000 1.000000 0.000000
vn 0.000000 1.000000 -0.000000
vn 0.000000 1.000000 -0.000000
vn 0.000000 1.000000 0.000000
vn 0.000000 1.000000 0.000000
vn 0.000000 1.000000 0.000000
vn 0.000000 1.000000 -0.000000
vn 0.000000 1.000000 -0.000000
vn 0.000000 1.000000 -0.000000
vn 0.000000 1.000000 0.000000
vn 0.000000 1.000000 0.000000
vn 0.951057 0.000000 -0.309015
vn 0.809018 0.000000 -0.587784
vn 0.809018 0.000000 -0.587784
vn 0.951057 0.000000 -0.309015
vn 0.587785 0.000000 -0.809018
vn 0.587785 0.000000 -0.809018
vn 0.309015 0.000000 -0.951057
vn 0.309015 0.000000 -0.951057
vn 0.000000 0.000000 -1.000000
vn 0.000000 0.000000 -1.000000
vn -0.309016 0.000000 -0.951057
vn -0.309016 0.000000 -0.951057
vn -0.587786 0.000000 -0.809017
vn -0.587786 0.000000 -0.809017
vn -0.809018 0.000000 -0.587784
vn -0.809018 0.000000 -0.587784
vn -0.951057 0.000000 -0.309015
vn -0.951057 0.000000 -0.309015
vn -1.000000 0.000000 0.000000
vn -1.000000 0.000000 0.000000
vn -0.951057 0.000000 0.309015
vn -0.951057 0.000000 0.309015
vn -0.809017 0.000000 0.587785
vn -0.809017 0.000000 0.587785
vn -0.587784 0.000000 0.809018
vn -0.587784 0.000000 0.809018
vn -0.309015 0.000000 0.951057
vn -0.309015 0.000000 0.951057
vn 0.000000 0.000000 1.000000
vn 0.000000 0.000000 1.000000
vn 0.309016 0.000000 0.951057
vn 0.309016 0.000000 0.951057
vn 0.587785 0.000000 0.809017
vn 0.587785 0.000000 0.809017
vn 0.809018 0.000000 0.587784
vn 0.809018 0.000000 0.587784
vn 0.951057 0.000000 0.309015
vn 0.951057 0.000000 0.309015
vn 1.000000 0.000000 0.000001
vn 1.000000 0.000000 0.000001
s 1
g cup
usemtl initialShadingGroup
f 1/21/1 2/22/2 22/43/3 21/42/4
f 2/22/2 3/23/5 23/44/6 22/43/3
f 3/23/5 4/24/7 24/45/8 23/44/6
f 4/24/7 5/25/9 25/46/10 24/45/8
f 5/25/9 6/26/11 26/47/12 25/46/10
f 6/26/11 7/27/13 27/48/14 26/47/12
f 7/27/13 8/28/15 28/49/16 27/48/14
f 8/28/15 9/29/17 29/50/18 28/49/16
f 9/29/17 10/30/19 30/51/20 29/50/18
f 10/30/19 11/31/21 31/52/22 30/51/20
f 11/31/21 12/32/23 32/53/24 31/52/22
f 12/32/23 13/33/25 33/54/26 32/53/24
f 13/33/25 14/34/27 34/55/28 33/54/26
f 14/34/27 15/35/29 35/56/30 34/55/28
f 15/35/29 16/36/31 36/57/32 35/56/30
f 16/36/31 17/37/33 37/58/34 36/57/32
f 17/37/33 18/38/35 38/59/36 37/58/34
f 18/38/35 19/39/37 39/60/38 38/59/36
f 19/39/37 20/40/39 40/61/40 39/60/38
f 20/40/39 1/41/1 21/62/4 40/61/40
s 2
f 2/2/41 1/1/42 41/83/43
f 3/3/44 2/2/41 41/83/43
f 4/4/45 3/3/44 41/83/43
f 5/5/46 4/4/45 41/83/43
f 6/6/47 5/5/46 41/83/43
f 7/7/48 6/6/47 41/83/43
f 8/8/49 7/7/48 41/83/43
f 9/9/50 8/8/49 41/83/43
f 10/10/51 9/9/50 41/83/43
f 11/11/52 10/10/51 41/83/43
f 12/12/53 11/11/52 41/83/43
f 13/13/54 12/12/53 41/83/43
f 14/14/55 13/13/54 41/83/43
f 15/15/56 14/14/55 41/83/43
f 16/16/57 15/15/56 41/83/43
f 17/17/58 16/16/57 41/83/43
f 18/18/59 17/17/58 41/83/43
f 19/19/60 18/18/59 41/83/43
f 20/20/61 19/19/60 41/83/43
f 1/1/42 20/20/61 41/83/43
s 1
f 21/81/4 22/80/3 43/105/62 42/143/63
f 22/80/3 23/79/6 44/107/64 43/105/62
f 23/79/6 24/78/8 45/109/65 44/107/64
f 24/78/8 25/77/10 46/111/66 45/109/65
f 25/77/10 26/76/12 47/113/67 46/111/66
f 26/76/12 27/75/14 48/115/68 47/113/67
f 27/75/14 28/74/16 49/117/69 48/115/68
f 28/74/16 29/73/18 50/119/70 49/117/69
f 29/73/18 30/72/20 51/121/71 50/119/70
f 30/72/20 31/71/22 52/123/72 51/121/71
f 31/71/22 32/70/24 53/125/73 52/123/72
f 32/70/24 33/69/26 54/127/74 53/125/73
f 33/69/26 34/68/28 55/129/75 54/127/74
f 34/68/28 35/67/30 56/131/76 55/129/75
f 35/67/30 36/66/32 57/133/77 56/131/76
f 36/66/32 37/65/34 58/135/78 57/133/77
f 37/65/34 38/64/36 59/137/79 58/135/78
f 38/64/36 39/63/38 60/139/80 59/137/79
f 39/63/38 40/82/40 61/141/81 60/139/80
f 40/82/40 21/81/4 42/143/63 61/141/81
s 3
f 63/106/82 64/103/83 101/102/84 102/144/85
f 64/103/83 63/106/82 66/108/86 65/84/87
f 65/84/87 66/108/86 68/110/88 67/85/89
f 67/85/89 68/110/88 70/112/90 69/86/91
f 69/86/91 70/112/90 72/114/92 71/87/93
f 71/87/93 72/114/92 74/116/94 73/88/95
f 73/88/95 74/116/94 76/118/96 75/89/97
f 75/89/97 76/118/96 78/120/98 77/90/99
f 77/90/99 78/120/98 80/122/100 79/91/101
f 79/91/101 80/122/100 82/124/102 81/92/103
f 81/92/103 82/124/102 84/126/104 83/93/105
f 83/93/105 84/126/104 86/128/106 85/94/107
f 85/94/107 86/128/106 88/130/108 87/95/109
f 87/95/109 88/130/108 90/132/110 89/96/111
f 89/96/111 90/132/110 92/134/112 91/97/113
f 91/97/113 92/134/112 94/136/114 93/98/115
f 93/98/115 94/136/114 96/138/116 95/99/117
f 95/99/117 96/138/116 98/140/118 97/100/119
f 97/100/119 98/140/118 100/142/120 99/101/121
f 99/101/121 100/142/120 102/144/85 101/102/84
s 4
f 64/103/122 65/84/123 62/104/124
f 65/84/123 67/85/125 62/104/124
f 67/85/125 69/86/126 62/104/124
f 69/86/126 71/87/127 62/104/124
f 71/87/127 73/88/128 62/104/124
f 73/88/128 75/89/129 62/104/124
f 75/89/129 77/90/130 62/104/124
f 77/90/130 79/91/131 62/104/124
f 79/91/131 81/92/132 62/104/124
f 81/92/132 83/93/133 62/104/124
f 83/93/133 85/94/134 62/104/124
f 85/94/134 87/95/135 62/104/124
f 87/95/135 89/96/136 62/104/124
f 89/96/136 91/97/137 62/104/124
f 91/97/137 93/98/138 62/104/124
f 93/98/138 95/99/139 62/104/124
f 95/99/139 97/100/140 62/104/124
f 97/100/140 99/101/141 62/104/124
f 99/101/141 101/102/142 62/104/124
f 101/102/142 64/103/122 62/104/124
s 5
f 42/143/143 43/105/144 66/108/145 63/106/146
f 43/105/144 44/107/147 68/110/148 66/108/145
f 44/107/147 45/109/149 70/112/150 68/110/148
f 45/109/149 46/111/151 72/114/152 70/112/150
f 46/111/151 47/113/153 74/116/154 72/114/152
f 47/113/153 48/115/155 76/118/156 74/116/154
f 48/115/155 49/117/157 78/120/158 76/118/156
f 49/117/157 50/119/159 80/122/160 78/120/158
f 50/119/159 51/121/161 82/124/162 80/122/160
f 51/121/161 52/123/163 84/126/164 82/124/162
f 52/123/163 53/125/165 86/128/166 84/126/164
f 53/125/165 54/127/167 88/130/168 86/128/166
f 54/127/167 55/129/169 90/132/170 88/130/168
f 55/129/169 56/131/171 92/134/172 90/132/170
f 56/131/171 57/133/173 94/136/174 92/134/172
f 57/133/173 58/135/175 96/138/176 94/136/174
f 58/135/175 59/137/177 98/140/178 96/138/176
f 59/137/177 60/139/179 100/142/180 98/140/178
f 60/139/179 61/141/181 102/144/182 100/142/180
f 61/141/181 42/143/143 63/106/146 102/144/182
